<svg xmlns="http://www.w3.org/2000/svg" width="44" height="44" viewBox="0 0 60 60" fill="none" color="#3a2516">
  <path fill-rule="evenodd" clip-rule="evenodd" d="M29.3687 0.00651169C13.1505 0.341293 0.0947582 13.5463 0.000513508 29.8226C0.000171328 29.8817 0 29.9408 0 30C0 30.0527 0.000136077 30.1054 0.000407896 30.1581C0.000977995 30.2686 0.0021452 30.3789 0.00390642 30.4891C0.0046644 30.5365 0.00553241 30.5839 0.0065102 30.6313C0.342082 46.8875 13.6083 59.9664 29.937 59.9999L30 60C30.088 60 30.1759 59.9996 30.2637 59.9989C37.9936 59.9323 45.0259 56.9423 50.309 52.0807C50.685 51.7778 51.0464 51.4536 51.3921 51.1079C51.816 50.684 52.2076 50.2365 52.5672 49.7673C57.066 44.6354 59.8423 37.9559 59.9935 30.6313C59.9978 30.4214 60 30.2109 60 30C60 29.789 59.9978 29.5785 59.9935 29.3685C59.8462 22.2336 57.2079 15.7108 52.9131 10.6343C52.4445 9.95186 51.9134 9.31054 51.3185 8.71573C50.7332 8.13036 50.1028 7.60665 49.4324 7.14356C44.3465 2.8153 37.7977 0.154488 30.6315 0.0065155C30.4215 0.00217819 30.211 0 30 0C29.7891 0 29.5786 0.00217819 29.3687 0.00651169ZM49.4975 51.1286C50.2331 50.4495 50.9332 49.7324 51.5946 48.9805C54.2533 45.4889 55.0436 40.592 53.9532 35.1398C53.7162 33.9548 53.3909 32.7493 52.979 31.5343C51.0625 35.8706 48.1227 40.1958 44.2475 44.0711C40.4272 47.8914 36.1694 50.8026 31.895 52.7205C33.0842 53.1202 34.2639 53.4369 35.4241 53.6689C40.9985 54.7838 45.9925 53.9327 49.4975 51.1286ZM44.3562 54.9146C40.2992 57.2574 35.6166 58.6377 30.6204 58.7434V53.597C35.4791 55.3841 40.2647 55.8647 44.3562 54.9146ZM28.4766 52.7253C27.2579 53.139 26.0487 53.4655 24.8602 53.7032C18.7255 54.9301 13.2938 53.776 9.77602 50.2583C6.25826 46.7405 5.10413 41.3088 6.33107 35.1741C6.57059 33.9765 6.90029 32.758 7.31844 31.5298C9.23526 35.8561 12.1704 40.1704 16.0368 44.0368C19.8831 47.8831 24.1728 50.8079 28.4766 52.7253ZM6.44965 29.3796H1.25656C1.36466 24.2731 2.80421 19.4941 5.24202 15.3759C4.18823 19.5209 4.63507 24.4103 6.44965 29.3796ZM16.0244 4.86944C19.9926 2.6579 24.5391 1.359 29.3798 1.25656V6.06311C24.6532 4.38567 20.0104 3.94958 16.0244 4.86944ZM28.4666 7.07004C27.2762 6.66974 26.0951 6.35266 24.9338 6.12039C18.7991 4.89345 13.3674 6.04758 9.84961 9.56534C6.33185 13.0831 5.17772 18.5148 6.40466 24.6495C6.63196 25.786 6.94048 26.9414 7.32873 28.1059C9.24684 23.8427 12.1528 19.5972 15.9632 15.7868C19.8285 11.9215 24.1415 8.98689 28.4666 7.07004ZM31.9057 7.07488C33.0663 6.68844 34.2177 6.38121 35.3505 6.15466C40.5399 5.11677 45.2264 5.78273 48.6767 8.14197C49.8392 9.13623 50.9215 10.2216 51.9124 11.3871C54.2553 14.8346 54.9145 19.5091 53.8796 24.6838C53.6549 25.8075 53.3507 26.9496 52.9686 28.1008C51.0507 23.8278 48.1401 19.5716 44.3211 15.7525C40.482 11.9134 36.2012 8.99244 31.9057 7.07488ZM52.1614 29.3796C50.324 25.0042 47.39 20.5892 43.4372 16.6364C39.4622 12.6614 35.0198 9.71671 30.6204 7.88143V25.1265C30.6204 27.4754 32.5246 29.3796 34.8735 29.3796H52.1614ZM53.9843 30.6202H58.7434C58.6433 35.3508 57.4006 39.8003 55.2801 43.7038C56.1023 39.7753 55.6348 35.2363 53.9843 30.6202ZM8.28572 30.6202C10.1282 34.9265 13.0312 39.2635 16.9207 43.1529C20.788 47.0202 25.0977 49.9123 29.3798 51.7563V34.8733C29.3798 32.5244 27.4756 30.6202 25.1267 30.6202H8.28572ZM58.7434 29.3796C58.6424 24.6049 57.3772 20.1165 55.2204 16.1869C56.0336 20.15 55.5395 24.7292 53.8471 29.3796H58.7434ZM43.3636 43.1872C39.4108 47.14 34.9958 50.074 30.6204 51.9114V34.8733C30.6204 32.5244 32.5246 30.6202 34.8735 30.6202H52.0132C50.1715 34.9378 47.2634 39.2874 43.3636 43.1872ZM29.3798 58.7434V53.7343C24.4639 55.492 19.6354 55.908 15.5386 54.8536C19.6198 57.2334 24.3403 58.6368 29.3798 58.7434ZM1.25656 30.6202C1.36388 35.6917 2.78448 40.4402 5.19197 44.5392C4.12084 40.4236 4.53799 35.5654 6.31228 30.6202H1.25656ZM16.8471 16.6707C20.7365 12.7812 25.0735 9.87819 29.3798 8.03572V25.1265C29.3798 27.4754 27.4756 29.3796 25.1267 29.3796H8.13733C9.97559 25.0154 12.9046 20.6132 16.8471 16.6707ZM30.6204 1.25656V6.19965C35.3001 4.49081 39.909 3.99495 43.892 4.82306C39.9436 2.63978 35.4271 1.35831 30.6204 1.25656ZM32.7454 29.9999C31.5202 30.5357 30.5359 31.52 30.0001 32.7452C29.4643 31.52 28.48 30.5357 27.2548 29.9999C28.48 29.4641 29.4643 28.4798 30.0001 27.2546C30.5359 28.4798 31.5202 29.4641 32.7454 29.9999Z" fill="currentColor" />
</svg>
